<svg id="Capa_1" data-name="Capa 1" xmlns="http://www.w3.org/2000/svg" viewBox="0 0 133.95 133.95"><defs><style>.cls-1{fill:#0729ff;}.cls-2{fill:#076bff;}</style></defs><path class="cls-1" d="M63.69,18.87,27,40.08a6.57,6.57,0,0,0-3.29,5.69V88.18A6.57,6.57,0,0,0,27,93.87l36.73,21.21a6.59,6.59,0,0,0,6.57,0L107,93.87a6.57,6.57,0,0,0,3.29-5.69V45.77A6.57,6.57,0,0,0,107,40.08L70.26,18.87A6.59,6.59,0,0,0,63.69,18.87Z"/><path class="cls-2" d="M63.69,27.77l-29,16.76a6.55,6.55,0,0,0-3.29,5.69V83.73a6.55,6.55,0,0,0,3.29,5.69l29,16.76a6.59,6.59,0,0,0,6.57,0l29-16.76a6.55,6.55,0,0,0,3.29-5.69V50.22a6.55,6.55,0,0,0-3.29-5.69l-29-16.76A6.59,6.59,0,0,0,63.69,27.77Z"/></svg>